<svg width="26" height="26" viewBox="0 0 26 26" fill="none" xmlns="http://www.w3.org/2000/svg">
<path d="M18.3225 22.3024L17.6007 16.1536C17.4984 15.2827 17.1006 14.4815 16.482 13.9007C15.8634 13.32 15.0668 12.9997 14.2418 13H11.7559C10.9313 13.0002 10.1352 13.3208 9.51712 13.9015C8.89904 14.4822 8.50153 15.2831 8.39928 16.1536L7.6763 22.3024C7.63662 22.6402 7.66495 22.9831 7.7594 23.3084C7.85385 23.6337 8.01227 23.9339 8.22413 24.189C8.43599 24.4441 8.69644 24.6484 8.98819 24.7882C9.27995 24.9281 9.59632 25.0002 9.91631 25H16.0837C16.4036 25.0001 16.7198 24.9278 17.0114 24.7879C17.303 24.648 17.5634 24.4437 17.7751 24.1886C17.9868 23.9334 18.1451 23.6333 18.2395 23.3081C18.3339 22.9829 18.3622 22.6401 18.3225 22.3024V22.3024Z" stroke="black" stroke-linecap="round" stroke-linejoin="round"/>
<path d="M13 8.2C14.8688 8.2 16.3837 6.58822 16.3837 4.6C16.3837 2.61177 14.8688 1 13 1C11.1313 1 9.61632 2.61177 9.61632 4.6C9.61632 6.58822 11.1313 8.2 13 8.2Z" stroke="black"/>
<path d="M3.97679 11.8C5.22263 11.8 6.23259 10.7255 6.23259 9.4C6.23259 8.07452 5.22263 7 3.97679 7C2.73095 7 1.72099 8.07452 1.72099 9.4C1.72099 10.7255 2.73095 11.8 3.97679 11.8Z" stroke="black"/>
<path d="M22.0232 11.8C23.269 11.8 24.279 10.7255 24.279 9.4C24.279 8.07452 23.269 7 22.0232 7C20.7774 7 19.7674 8.07452 19.7674 9.4C19.7674 10.7255 20.7774 11.8 22.0232 11.8Z" stroke="black"/>
<path d="M3.9768 15.4H3.63167C3.09768 15.3999 2.58098 15.6014 2.17349 15.9686C1.76601 16.3357 1.49416 16.8448 1.40632 17.4052L1.03073 19.8052C0.976831 20.149 0.993985 20.5013 1.081 20.8374C1.16801 21.1734 1.3228 21.4853 1.53459 21.7513C1.74639 22.0173 2.0101 22.231 2.30739 22.3776C2.60468 22.5241 2.92842 22.6 3.25608 22.6H7.3605" stroke="black" stroke-linecap="round" stroke-linejoin="round"/>
<path d="M22.0232 15.4H22.3683C22.9023 15.3999 23.419 15.6014 23.8265 15.9686C24.234 16.3357 24.5058 16.8448 24.5937 17.4052L24.9693 19.8052C25.0232 20.149 25.006 20.5013 24.919 20.8374C24.832 21.1734 24.6772 21.4853 24.4654 21.7513C24.2536 22.0173 23.9899 22.231 23.6926 22.3776C23.3953 22.5241 23.0716 22.6 22.7439 22.6H18.6395" stroke="black" stroke-linecap="round" stroke-linejoin="round"/>
</svg>
