<svg width="28" height="27" viewBox="0 0 28 27" fill="none" xmlns="http://www.w3.org/2000/svg">
<path d="M7.14219 0.965031C7.04922 1.05468 7 1.20761 6.92891 1.63476C6.87422 1.94062 6.80312 2.33612 6.77578 2.52069L6.71562 2.85292L6.41484 2.98476C6.25078 3.05331 6.08672 3.0955 6.05937 3.07968C6.03203 3.06386 5.6875 2.82655 5.29375 2.55234C4.75781 2.1832 4.53906 2.05663 4.41328 2.05663C4.26562 2.05663 4.10156 2.18847 3.18828 3.07441C2.29141 3.93925 2.13281 4.11327 2.13281 4.24511C2.13281 4.36112 2.28047 4.6037 2.67969 5.14159C2.98047 5.54765 3.22109 5.89042 3.21562 5.90624C3.20469 5.92206 3.15 6.05917 3.09531 6.20683L2.99141 6.47577L2.05625 6.62343C1.27969 6.74472 1.10469 6.79218 1.00078 6.8871C0.875 7.00839 0.875 7.02421 0.875 8.43749C0.875 9.85077 0.875 9.86659 1.00078 9.98788C1.10469 10.0828 1.27969 10.1303 2.05625 10.2516L2.98594 10.3992L3.08984 10.6734C3.15 10.8211 3.20469 10.9529 3.21016 10.9687C3.22109 10.9846 2.98047 11.3273 2.67969 11.7334C2.28047 12.2713 2.13281 12.5139 2.13281 12.6299C2.13281 12.7617 2.29141 12.9357 3.18828 13.8006C4.10156 14.6865 4.26562 14.8183 4.41328 14.8183C4.53906 14.8183 4.75781 14.6918 5.29375 14.3226C5.6875 14.0484 6.03203 13.8111 6.05937 13.7953C6.08672 13.7795 6.25078 13.8217 6.41484 13.8902L6.71562 14.0221L6.77578 14.3543C6.80312 14.5389 6.87422 14.9344 6.92891 15.2402C7.07109 16.084 6.95078 16.0312 8.75 16.0312C10.5492 16.0312 10.4289 16.084 10.5711 15.2402C10.6258 14.9344 10.6969 14.5389 10.7242 14.3543L10.7844 14.0221L11.0852 13.8902C11.3859 13.7637 11.4297 13.7637 11.6047 13.906C11.6867 13.9746 11.6703 14.0273 11.3969 14.5389C11.0742 15.1664 10.768 16.026 10.6258 16.7432C10.4945 17.4023 10.4945 18.8842 10.6258 19.5381C10.9758 21.2572 11.6922 22.5703 12.9555 23.7885C14.2187 25.0014 15.6187 25.7185 17.3633 26.0297C18.118 26.1668 19.507 26.1668 20.2617 26.0297C22.0117 25.7133 23.4008 25.0066 24.6695 23.7885C25.9328 22.5703 26.6711 21.2203 26.9937 19.5381C27.1359 18.8103 27.1359 17.4709 26.9937 16.7432C26.6711 15.0609 25.9273 13.7109 24.6695 12.4928C23.4062 11.2746 22.0445 10.5838 20.2617 10.2463C19.5836 10.1197 18.0469 10.1197 17.3633 10.2463C16.6195 10.3834 15.7281 10.6787 15.0773 10.9898C14.5469 11.2535 14.4922 11.2693 14.4211 11.1902C14.2734 11.0215 14.2734 10.9793 14.4047 10.6892L14.5414 10.3992L14.8859 10.3412C15.0773 10.3148 15.4875 10.2463 15.8047 10.1935C16.6797 10.0564 16.625 10.1725 16.625 8.43749C16.625 6.70253 16.6797 6.81855 15.8047 6.68144C15.4875 6.6287 15.0773 6.56015 14.8859 6.53378L14.5414 6.47577L14.4047 6.18573C14.3336 6.02753 14.2898 5.86933 14.3117 5.83241C14.3336 5.80077 14.5797 5.46855 14.8586 5.08886C15.2305 4.59315 15.3672 4.36112 15.3672 4.25038C15.3672 4.11327 15.2141 3.93925 14.3117 3.07441C13.4148 2.20429 13.2344 2.05663 13.0922 2.05663C12.9773 2.05663 12.7367 2.18847 12.2227 2.54706C11.8289 2.81601 11.4844 3.05331 11.4516 3.07441C11.4133 3.0955 11.2492 3.05331 11.0852 2.98476L10.7844 2.85292L10.7242 2.52069C10.6969 2.33612 10.6258 1.94062 10.5711 1.63476C10.4289 0.791008 10.5492 0.843742 8.75 0.843742C7.28437 0.843742 7.26797 0.843742 7.14219 0.965031ZM9.70156 1.77714C9.7125 1.82987 9.78359 2.19901 9.84922 2.5998C9.98594 3.41718 10.0461 3.53319 10.3852 3.63339C10.5109 3.66503 10.768 3.76523 10.9703 3.8496C11.1672 3.93925 11.3914 4.0078 11.468 4.0078C11.5555 4.0078 11.8562 3.83905 12.2664 3.55429C12.6273 3.30644 12.9609 3.09023 13.0047 3.07441C13.0867 3.04276 14.3281 4.19237 14.3281 4.30312C14.3281 4.33476 14.1094 4.66171 13.8359 5.02558C13.5352 5.43163 13.3437 5.73749 13.3437 5.81659C13.3437 5.89042 13.4148 6.10663 13.5078 6.29647C13.5953 6.49159 13.6992 6.73944 13.732 6.86073C13.8359 7.18769 13.9562 7.24569 14.8039 7.37753C15.2195 7.44081 15.6023 7.50937 15.657 7.51991C15.7445 7.54628 15.75 7.62538 15.7391 8.45331L15.7227 9.35507L14.8641 9.49218C13.9125 9.64511 13.8359 9.68202 13.7266 10.0353C13.6883 10.1566 13.5898 10.4098 13.5023 10.5943C13.4148 10.7789 13.3437 10.9898 13.3437 11.0584C13.3437 11.1375 13.5406 11.4539 13.8359 11.8494C14.1094 12.2133 14.3281 12.5402 14.3281 12.5719C14.3281 12.6035 14.0383 12.9094 13.6883 13.2469L13.043 13.8639L12.332 13.3682C11.8727 13.0465 11.5719 12.8725 11.4734 12.8725C11.3969 12.8672 11.1672 12.9357 10.9703 13.0254C10.768 13.1098 10.5109 13.21 10.3852 13.2416C10.0461 13.3418 9.98594 13.4578 9.84922 14.2752C9.78359 14.676 9.7125 15.0451 9.70156 15.0926C9.67422 15.1769 9.58125 15.1875 8.75 15.1875C7.91875 15.1875 7.82578 15.1769 7.79844 15.0926C7.7875 15.0451 7.71641 14.676 7.65078 14.2752C7.51406 13.4578 7.45391 13.3418 7.11484 13.2416C6.98906 13.21 6.73203 13.1098 6.52969 13.0254C6.33281 12.9357 6.10859 12.8672 6.03203 12.8672C5.94453 12.8672 5.64375 13.0359 5.23359 13.3207C4.87266 13.5685 4.53906 13.7848 4.49531 13.8006C4.41328 13.8322 3.17187 12.6826 3.17187 12.5719C3.17187 12.5402 3.39609 12.2133 3.66406 11.8494C3.94844 11.4644 4.15625 11.1375 4.15625 11.0637C4.15078 10.8791 3.68047 9.79276 3.56016 9.69784C3.5 9.65038 3.14453 9.56601 2.69609 9.49745C2.28047 9.43417 1.89766 9.36562 1.84297 9.35507C1.76094 9.3287 1.75 9.23905 1.75 8.43749C1.75 7.63593 1.76094 7.54628 1.84844 7.51991C1.89766 7.50937 2.275 7.44608 2.67969 7.3828C3.42344 7.26679 3.64219 7.18769 3.70234 7.02421C3.71875 6.97675 3.82812 6.71308 3.94297 6.44941C4.06328 6.18046 4.15625 5.90097 4.15625 5.82187C4.15625 5.73749 3.98672 5.46327 3.69141 5.06249C3.43437 4.71972 3.21016 4.39804 3.19375 4.35058C3.16641 4.2873 3.325 4.10273 3.77891 3.65976C4.11797 3.32753 4.42969 3.05859 4.4625 3.05859C4.49531 3.05859 4.83437 3.26952 5.21172 3.53319C5.63281 3.82323 5.95 4.0078 6.03203 4.0078C6.10859 4.0078 6.33281 3.93925 6.52969 3.8496C6.73203 3.76523 6.98906 3.66503 7.11484 3.63339C7.45391 3.53319 7.51406 3.41718 7.65078 2.5998C7.71641 2.19901 7.7875 1.82987 7.79844 1.77714C7.82578 1.69804 7.91875 1.68749 8.75 1.68749C9.58125 1.68749 9.67422 1.69804 9.70156 1.77714ZM18.375 11.6016V12.2344H18.8125H19.25V11.6121V10.9898L19.6711 11.032C23.0289 11.3801 25.8234 14.0748 26.1844 17.3127L26.2281 17.7187H25.5828H24.9375V18.1406V18.5625H25.5828H26.2281L26.1844 18.9685C25.8234 22.2012 23.0234 24.9012 19.6711 25.2492L19.25 25.2914V24.6691V24.0469H18.8125H18.375V24.6691V25.2914L17.9703 25.2492C17.0242 25.1543 15.9852 24.8273 15.143 24.358C13.0977 23.2348 11.6867 21.1728 11.4406 18.9685L11.3969 18.5625H12.0422H12.6875V18.1406V17.7187H12.0312C11.375 17.7187 11.375 17.7187 11.3969 17.5975C11.4133 17.5342 11.4406 17.3391 11.457 17.165C11.5445 16.3793 12.0148 15.0451 12.3758 14.5863C12.4523 14.4861 12.4633 14.4861 12.693 14.6496C13.1141 14.9502 13.125 14.9502 14.3117 13.8006C15.5039 12.6562 15.5039 12.6457 15.1922 12.2396C15.0227 12.0182 15.0227 12.0076 15.1266 11.9338C15.6078 11.5805 16.8328 11.1797 17.8008 11.0478C18.0742 11.0109 18.3094 10.9793 18.3367 10.974C18.3586 10.9687 18.375 11.2535 18.375 11.6016Z" fill="black"/>
<path d="M8.3125 2.95312V3.375H8.75H9.1875V2.95312V2.53125H8.75H8.3125V2.95312Z" fill="black"/>
<path d="M4.41328 4.26094L4.10156 4.5668L4.41875 4.86738L4.73594 5.16797L5.04766 4.86211L5.35938 4.55625L5.04219 4.25566L4.725 3.95508L4.41328 4.26094Z" fill="black"/>
<path d="M12.4523 4.26094L12.1406 4.5668L12.4578 4.86738L12.775 5.16797L13.0867 4.86211L13.3984 4.55625L13.0813 4.25566L12.7641 3.95508L12.4523 4.26094Z" fill="black"/>
<path d="M8.4875 4.30841C8.35078 4.42443 6.125 9.14416 6.125 9.31818C6.125 9.38673 6.18516 9.50275 6.26172 9.5713C6.39297 9.70314 6.40937 9.70314 7.35547 9.70314H8.3125V11.0479V12.3979L8.44922 12.5244C8.60781 12.6826 8.85391 12.6985 9.0125 12.5613C9.14922 12.4506 11.375 7.73087 11.375 7.55685C11.375 7.4883 11.3148 7.37228 11.2383 7.30373C11.107 7.17189 11.0906 7.17189 10.1445 7.17189H9.1875V5.82716V4.47716L9.05078 4.3506C8.89219 4.1924 8.64609 4.17658 8.4875 4.30841ZM8.47109 7.91544C8.58047 8.00509 8.69531 8.01564 9.41172 8.01564C9.86016 8.01564 10.2266 8.03146 10.2266 8.04728C10.2266 8.06837 9.99688 8.56408 9.72344 9.15998L9.21484 10.241L9.1875 9.65041C9.14922 8.84357 9.17109 8.85939 8.08828 8.85939C7.63984 8.85939 7.27344 8.84357 7.27344 8.82775C7.27344 8.80666 7.50312 8.31095 7.78203 7.71505L8.28516 6.634L8.3125 7.22462C8.33984 7.76251 8.35078 7.82052 8.47109 7.91544Z" fill="black"/>
<path d="M2.625 8.4375V8.85938H3.0625H3.5V8.4375V8.01562H3.0625H2.625V8.4375Z" fill="black"/>
<path d="M14 8.4375V8.85938H14.4375H14.875V8.4375V8.01562H14.4375H14V8.4375Z" fill="black"/>
<path d="M4.41328 12.0129L4.10156 12.3187L4.41875 12.6193L4.73594 12.9199L5.04766 12.6141L5.35938 12.3082L5.04219 12.0076L4.725 11.707L4.41328 12.0129Z" fill="black"/>
<path d="M12.4523 12.0129L12.1406 12.3187L12.4578 12.6193L12.775 12.9199L13.0867 12.6141L13.3984 12.3082L13.0813 12.0076L12.7641 11.707L12.4523 12.0129Z" fill="black"/>
<path d="M8.3125 13.9219V14.3438H8.75H9.1875V13.9219V13.5H8.75H8.3125V13.9219Z" fill="black"/>
<path d="M18.375 15.6885V18.3041L18.5117 18.4307L18.643 18.5625H20.4805H22.3125V18.1406V17.7188H20.7812H19.25V15.3984V13.0781H18.8125H18.375V15.6885Z" fill="black"/>
<path d="M15.5422 0.88067C15.4765 0.907037 14.6289 2.08829 14.5687 2.24122C14.5359 2.32032 15.1703 2.76856 15.2523 2.7211C15.2742 2.70528 15.4492 2.46797 15.6406 2.18848L15.9851 1.68751H17.8336H19.6875V1.26563V0.843756L17.6531 0.849029C16.532 0.849029 15.5805 0.86485 15.5422 0.88067Z" fill="black"/>
<path d="M22.0555 0.922852C21.9844 0.970313 21.9078 1.09687 21.875 1.21289L21.8203 1.41855L21.5797 1.31309C21.3992 1.23926 21.3062 1.22344 21.2078 1.26035C21.0437 1.32363 19.7094 2.63145 19.6656 2.76855C19.6492 2.83184 19.682 2.96895 19.7422 3.08496C19.857 3.30117 19.8242 3.375 19.6164 3.375C19.5617 3.375 19.4578 3.43301 19.3867 3.50684C19.25 3.6334 19.25 3.64395 19.25 4.64062C19.25 5.6373 19.25 5.64785 19.3867 5.77441C19.4578 5.84824 19.5617 5.90625 19.6164 5.90625C19.8242 5.90625 19.857 5.98008 19.7422 6.19629C19.682 6.3123 19.6492 6.44941 19.6656 6.5127C19.7094 6.6498 21.0437 7.95762 21.2078 8.0209C21.3062 8.05781 21.3992 8.04199 21.5797 7.96816L21.8203 7.8627L21.875 8.06836C21.9734 8.41641 22.0391 8.4375 23.1875 8.4375C24.3359 8.4375 24.4016 8.42168 24.5 8.06309C24.5328 7.94707 24.5766 7.85742 24.5984 7.86797C24.8937 8.0209 25.0523 8.06309 25.1672 8.0209C25.3312 7.95762 26.6656 6.6498 26.7094 6.5127C26.7258 6.44941 26.693 6.3123 26.6328 6.19629C26.518 5.98008 26.5508 5.90625 26.7586 5.90625C26.8133 5.90625 26.9172 5.84824 26.9883 5.77441C27.125 5.64785 27.125 5.6373 27.125 4.64062C27.125 3.64395 27.125 3.6334 26.9883 3.50684C26.9172 3.43301 26.8133 3.375 26.7586 3.375C26.5508 3.375 26.518 3.30117 26.6328 3.08496C26.693 2.96895 26.7258 2.83184 26.7094 2.76855C26.6656 2.63145 25.3312 1.32363 25.1672 1.26035C25.0523 1.21816 24.8937 1.26035 24.5984 1.41328C24.5766 1.42383 24.5328 1.33418 24.5 1.21816C24.4016 0.85957 24.3359 0.84375 23.1875 0.84375C22.3617 0.84375 22.1484 0.85957 22.0555 0.922852ZM23.7891 1.96172C23.9313 2.54707 24.1391 2.64199 24.6641 2.3625L24.9922 2.18848L25.3586 2.54707L25.7305 2.90039L25.55 3.2168C25.2602 3.72305 25.3586 3.92344 25.9656 4.06055L26.25 4.12383V4.64062V5.15742L25.9656 5.2207C25.5719 5.31035 25.5117 5.34727 25.4242 5.54238C25.3586 5.70059 25.3695 5.7375 25.5391 6.04863L25.725 6.38613L25.3586 6.73418L24.9977 7.0875L24.6477 6.9082C24.325 6.74473 24.2867 6.73418 24.1227 6.79746C23.9203 6.88184 23.882 6.93984 23.7891 7.31426L23.7234 7.59375H23.1875H22.6516L22.5859 7.31426C22.493 6.93984 22.4547 6.88184 22.2523 6.79746C22.0883 6.73418 22.05 6.74473 21.7273 6.9082L21.3773 7.0875L21.0164 6.73418L20.65 6.38613L20.8359 6.04863C21.0055 5.7375 21.0164 5.70059 20.9508 5.54238C20.8633 5.34727 20.8031 5.31035 20.4148 5.2207L20.125 5.15742V4.64062V4.12383L20.4148 4.06055C20.8031 3.9709 20.8633 3.93398 20.9508 3.73887C21.0164 3.58066 21.0055 3.54375 20.8359 3.23262L20.65 2.89512L21.0164 2.5418L21.3828 2.18848L21.7109 2.36777C22.2141 2.63145 22.4547 2.5207 22.5805 1.97754L22.6461 1.6875H23.1875H23.7234L23.7891 1.96172Z" fill="black"/>
<path d="M22.6406 3.03749C21.8641 3.31171 21.3883 4.00253 21.4484 4.76191C21.5906 6.43886 23.8711 6.9082 24.7133 5.43163C24.8937 5.11523 24.9102 5.05722 24.9102 4.64062C24.9102 4.22929 24.8937 4.16073 24.7242 3.86015C24.407 3.30116 23.9367 3.01113 23.275 2.97421C23.0016 2.95839 22.8156 2.97948 22.6406 3.03749ZM23.532 3.8707C24.0953 4.09745 24.232 4.80409 23.7945 5.22597C23.182 5.82187 22.1758 5.28925 22.3344 4.45605C22.4328 3.96034 23.0344 3.66503 23.532 3.8707Z" fill="black"/>
<path d="M3.68047 18.6416C3.60938 18.6891 3.53281 18.8156 3.5 18.9316L3.44531 19.1373L3.20469 19.0318C3.02422 18.958 2.93125 18.9422 2.83281 18.9791C2.66875 19.0424 1.33437 20.3502 1.29063 20.4873C1.27422 20.5506 1.30703 20.6877 1.36719 20.8037C1.48203 21.0199 1.44922 21.0938 1.24141 21.0938C1.18672 21.0938 1.08281 21.1518 1.01172 21.2256C0.875 21.3521 0.875 21.3627 0.875 22.3594C0.875 23.3561 0.875 23.3666 1.01172 23.4932C1.08281 23.567 1.18672 23.625 1.24141 23.625C1.44922 23.625 1.48203 23.6988 1.36719 23.915C1.30703 24.0311 1.27422 24.1682 1.29063 24.2314C1.33437 24.3686 2.66875 25.6764 2.83281 25.7396C2.93125 25.7766 3.02422 25.7607 3.20469 25.6869L3.44531 25.5814L3.5 25.7871C3.59844 26.1352 3.66406 26.1562 4.8125 26.1562C5.96094 26.1562 6.02656 26.1404 6.125 25.7818C6.15781 25.6658 6.20156 25.5762 6.22344 25.5867C6.51875 25.7396 6.67734 25.7818 6.79219 25.7396C6.95625 25.6764 8.29063 24.3686 8.33437 24.2314C8.35078 24.1682 8.31797 24.0311 8.25781 23.915C8.14297 23.6988 8.17578 23.625 8.38359 23.625C8.43828 23.625 8.54219 23.567 8.61328 23.4932C8.75 23.3666 8.75 23.3561 8.75 22.3594C8.75 21.3627 8.75 21.3521 8.61328 21.2256C8.54219 21.1518 8.43828 21.0938 8.38359 21.0938C8.17578 21.0938 8.14297 21.0199 8.25781 20.8037C8.31797 20.6877 8.35078 20.5506 8.33437 20.4873C8.29063 20.3502 6.95625 19.0424 6.79219 18.9791C6.67734 18.9369 6.51875 18.9791 6.22344 19.132C6.20156 19.1426 6.15781 19.0529 6.125 18.9369C6.02656 18.5783 5.96094 18.5625 4.8125 18.5625C3.98672 18.5625 3.77344 18.5783 3.68047 18.6416ZM5.41406 19.6805C5.55625 20.2658 5.76406 20.3607 6.28906 20.0812L6.61719 19.9072L6.98359 20.2658L7.35547 20.6191L7.175 20.9355C6.88516 21.4418 6.98359 21.6422 7.59062 21.7793L7.875 21.8426V22.3594V22.8762L7.59062 22.9395C7.19688 23.0291 7.13672 23.066 7.04922 23.2611C6.98359 23.4193 6.99453 23.4562 7.16406 23.7674L7.35 24.1049L6.98359 24.4529L6.62266 24.8062L6.27266 24.627C5.95 24.4635 5.91172 24.4529 5.74766 24.5162C5.54531 24.6006 5.50703 24.6586 5.41406 25.033L5.34844 25.3125H4.8125H4.27656L4.21094 25.033C4.11797 24.6586 4.07969 24.6006 3.87734 24.5162C3.71328 24.4529 3.675 24.4635 3.35234 24.627L3.00234 24.8062L2.63594 24.4529L2.26953 24.0996L2.45547 23.7832C2.72891 23.298 2.61406 23.066 2.05078 22.9447L1.75 22.8814V22.3594V21.8426L2.03984 21.7793C2.42813 21.6896 2.48828 21.6527 2.57578 21.4576C2.64141 21.2994 2.63047 21.2625 2.46094 20.9514L2.275 20.6139L2.64141 20.2605L3.00781 19.9072L3.33594 20.0865C3.83906 20.3502 4.07969 20.2395 4.20547 19.6963L4.27109 19.4062H4.8125H5.34844L5.41406 19.6805Z" fill="black"/>
<path d="M4.26562 20.7562C3.48906 21.0305 3.01328 21.7213 3.07344 22.4807C3.21562 24.1576 5.49609 24.6269 6.33828 23.1504C6.51875 22.834 6.53516 22.776 6.53516 22.3594C6.53516 21.948 6.51875 21.8795 6.34922 21.5789C6.03203 21.0199 5.56172 20.7299 4.9 20.693C4.62656 20.6771 4.44062 20.6982 4.26562 20.7562ZM5.15703 21.5894C5.72031 21.8162 5.85703 22.5228 5.41953 22.9447C5.06406 23.2875 4.56094 23.2875 4.20547 22.9447C3.52734 22.2961 4.27656 21.2309 5.15703 21.5894Z" fill="black"/>
<path d="M12.3812 24.7852L12.0148 25.3125H10.1609H8.3125V25.7344V26.1562H10.3305C11.4406 26.1562 12.3922 26.1404 12.4414 26.1246C12.5234 26.093 13.3602 24.9381 13.4312 24.7588C13.4531 24.7166 13.3383 24.6111 13.1305 24.474C12.95 24.3527 12.7914 24.2578 12.775 24.2578C12.7586 24.2578 12.5781 24.4951 12.3812 24.7852Z" fill="black"/>
</svg>
