<svg width="26" height="23" viewBox="0 0 26 23" fill="none" xmlns="http://www.w3.org/2000/svg">
<path d="M3.54961 0.13382C2.38164 0.31839 2.19375 0.413312 1.46758 1.16741C0.726172 1.93734 0.330078 2.69671 0.106641 3.77777C0.0152344 4.21019 0 4.46331 0 5.5971C0 6.80999 0.0101562 6.97347 0.137109 7.63265C0.741406 10.8336 2.38672 13.9291 4.94101 16.6608C8.47539 20.4471 12.8934 22.5248 16.773 22.2348C18.398 22.1082 19.3629 21.6811 20.3328 20.6528C20.9676 19.983 21.0844 19.7457 21.2113 18.9125L21.318 18.227H22.7195C23.5168 18.227 24.2531 18.2006 24.4207 18.169C25.0047 18.0582 25.4871 17.6891 25.7461 17.1618L25.868 16.9139V10.185V3.45609L25.7461 3.20296C25.5785 2.86019 25.1215 2.43831 24.7762 2.30648C24.4918 2.19573 24.4664 2.19573 15.7117 2.19573H6.93164L6.56094 1.44163C5.83984 -0.0243825 5.48437 -0.177313 3.54961 0.13382ZM5.18984 0.898468C5.26602 0.940656 5.37773 1.03031 5.43359 1.09886C5.49453 1.16214 5.99219 2.15355 6.54062 3.28734C7.60703 5.50745 7.64766 5.61819 7.45976 5.99261C7.38359 6.14554 6.98242 6.51995 6.89609 6.51995C6.84023 6.51995 6.16992 5.4389 5.70781 4.60042C5.12383 3.54046 3.99141 1.01976 4.0625 0.935383C4.09805 0.893195 4.49922 0.840461 4.78359 0.829914C4.93086 0.829914 5.11367 0.856281 5.18984 0.898468ZM3.32109 1.33616C3.86953 2.86546 4.79883 4.75335 5.81953 6.41448L6.22578 7.07366L6.00742 7.25823C5.15937 7.9596 5.10859 8.24437 5.60625 9.42034C6.54062 11.6299 8.41445 13.8817 10.532 15.353C11.6137 16.1071 12.9238 16.7504 13.3605 16.7504C13.6957 16.7451 13.9445 16.5869 14.2695 16.1651C14.432 15.9489 14.5691 15.7643 14.5742 15.759C14.5793 15.7485 14.752 15.8592 14.9602 16.0016C16.2043 16.8717 18.3371 18.0424 19.6879 18.5961C20.3176 18.8545 20.3836 18.8967 20.3836 19.0127C20.3836 19.2448 20.1703 19.6086 19.8047 20.0094C18.982 20.9059 18.1695 21.275 16.7273 21.391C13.7668 21.6336 10.4457 20.3627 7.34805 17.7946C3.80859 14.8625 1.3457 10.7229 0.853125 6.88382C0.751562 6.07698 0.776953 4.55296 0.908984 3.91488C1.07656 3.08167 1.45742 2.34866 2.03125 1.75277C2.48828 1.27816 2.77266 1.10413 3.17891 1.04085C3.19922 1.03558 3.26016 1.17269 3.32109 1.33616ZM24.4766 3.09749C24.5273 3.18714 16.0469 11.978 15.7828 12.1098C15.534 12.2364 15.3664 12.2416 15.1125 12.1362C14.9805 12.0782 13.9242 11.0129 11.6137 8.61351C9.79062 6.72562 8.29766 5.14886 8.29766 5.11194C8.29766 5.0803 8.0793 4.60042 7.81523 4.04671L7.33281 3.03948H15.8895C22.1305 3.03948 24.4512 3.0553 24.4766 3.09749ZM25.1266 3.89378C25.1418 3.96234 25.157 6.77835 25.157 10.1586V16.3022L22.1102 13.1381L19.0633 9.97405L22.0441 6.87855C23.6895 5.16995 25.0453 3.77777 25.0605 3.77777C25.0809 3.77777 25.1062 3.8305 25.1266 3.89378ZM10.0242 8.12835L11.7762 9.94769L10.3543 11.4242L8.93242 12.9061L8.61758 12.558C8.16562 12.0676 7.56641 11.2766 7.18047 10.6596C6.59141 9.71038 6.05312 8.50277 6.1293 8.2971C6.14453 8.25491 6.55078 7.89632 7.03828 7.50609C7.61211 7.03675 7.96758 6.70452 8.06914 6.55159C8.15547 6.41976 8.23164 6.30902 8.24687 6.30902C8.26211 6.30902 9.05937 7.1264 10.0242 8.12835ZM13.452 11.6879C14.6859 12.9694 14.7773 13.0326 15.4324 13.0274C16.0875 13.0274 16.1789 12.9641 17.4129 11.6879L18.4793 10.5805L21.6277 13.85C23.3543 15.643 24.7609 17.1248 24.7508 17.1354C24.7355 17.1512 24.6441 17.2039 24.5477 17.2567C24.3902 17.3463 24.2227 17.3569 22.9176 17.3727L21.4652 17.3885L21.4297 17.0826C21.4145 16.9139 21.3434 16.6502 21.2723 16.5026C21.0437 15.9805 20.8812 15.8698 18.5809 14.6674L16.4582 13.56H16.0418C15.666 13.56 15.5898 13.5758 15.275 13.7446C14.9449 13.9186 14.8941 13.9766 14.2137 14.8731C13.8176 15.3951 13.4621 15.8434 13.4164 15.8698C13.325 15.933 12.9898 15.8065 12.2383 15.4215C11.4055 14.9891 10.4355 14.3141 9.75508 13.6866L9.50625 13.4651L10.8977 12.0201C11.6594 11.2291 12.3043 10.5805 12.3348 10.5805C12.3652 10.5805 12.8629 11.0762 13.452 11.6879ZM18.2457 15.4373C19.3527 16.0227 20.3023 16.5395 20.3531 16.5869C20.4039 16.6344 20.4953 16.7768 20.5461 16.8981C20.6375 17.109 20.6426 17.167 20.5867 17.5731C20.5156 18.0951 20.6121 18.0846 19.698 17.6891C18.8957 17.341 17.7176 16.7399 16.9457 16.2811C16.2855 15.8856 15.1023 15.1051 15.1023 15.0629C15.1023 14.9838 15.5492 14.5092 15.6812 14.4512C16.0418 14.2877 16.1129 14.3141 18.2457 15.4373Z" fill="black"/>
</svg>
