<svg width="24" height="24" viewBox="0 0 24 24" fill="none" xmlns="http://www.w3.org/2000/svg">
<path d="M11.2129 0.10627C11.0625 0.167403 10.8604 0.275562 10.7664 0.341398C10.6677 0.407234 8.29416 2.76322 5.48354 5.57535C1.36632 9.70421 0.355819 10.7388 0.257119 10.9363C-0.194083 11.8486 -0.0436824 12.8455 0.647221 13.5415C1.07962 13.9694 1.62953 14.1952 2.25933 14.1952H2.57893V17.9572C2.57893 20.5013 2.59773 21.7945 2.63063 21.9638C2.80923 22.8197 3.50013 23.5956 4.35554 23.8918C4.66574 24 4.68924 24 6.95935 24C9.19656 24 9.24826 24 9.37516 23.9012C9.44566 23.8495 9.54906 23.7461 9.60076 23.6755C9.69946 23.5486 9.69946 23.4874 9.72296 20.4072L9.74646 17.2659L9.88746 17.0355C10.0661 16.7486 10.428 16.5182 10.7758 16.4759C10.9074 16.4571 11.5654 16.4524 12.2375 16.4618L13.4595 16.4759L13.7086 16.6123C13.9436 16.7439 14.094 16.8991 14.2397 17.1578C14.2914 17.2565 14.3102 17.8349 14.329 20.4119C14.3525 23.4874 14.3525 23.5486 14.4512 23.6755C14.5029 23.7461 14.6063 23.8495 14.6768 23.9012C14.8037 24 14.8554 24 17.0926 24C19.3627 24 19.3862 24 19.6964 23.8918C20.5518 23.5956 21.2427 22.8197 21.4213 21.9638C21.4542 21.7945 21.473 20.5013 21.473 17.9572V14.1952H21.7926C22.6762 14.1952 23.447 13.7249 23.8277 12.949C23.9875 12.6245 23.9875 12.6151 23.9875 11.9849C23.9875 10.9128 24.528 11.5476 18.4932 5.51422C12.496 -0.490955 13.0976 0.0263262 12.073 0.00281334C11.5419 -0.00659179 11.462 0.00281342 11.2129 0.10627ZM12.3738 1.4512C12.6511 1.58288 22.4741 11.4253 22.5775 11.6652C22.6762 11.905 22.6668 12.1072 22.5493 12.3423C22.3754 12.7044 22.2297 12.7562 21.3226 12.7844C20.4719 12.8079 20.4108 12.8267 20.1852 13.1324C20.0865 13.2593 20.0865 13.3111 20.063 17.5246L20.0395 21.7898L19.9079 22.0108C19.8374 22.1331 19.7105 22.2883 19.6259 22.3494C19.2969 22.6033 19.1982 22.6127 17.4028 22.6127H15.739V19.9793C15.739 18.2535 15.7202 17.2659 15.6873 17.1013C15.504 16.2173 14.7943 15.4554 13.8825 15.1686C13.5723 15.0698 13.4689 15.0651 12.026 15.0651C10.3434 15.0651 10.2588 15.0745 9.65716 15.3802C9.06026 15.6812 8.50566 16.4242 8.36466 17.1013C8.33176 17.2659 8.31296 18.2535 8.31296 19.9793V22.6127H6.64915C4.85374 22.6127 4.75504 22.6033 4.42604 22.3494C4.34144 22.2883 4.21454 22.1331 4.14404 22.0108L4.01244 21.7898L3.98894 17.5246C3.96544 13.3111 3.96544 13.2593 3.86674 13.1324C3.64113 12.8267 3.58003 12.8079 2.72933 12.7844C1.82223 12.7562 1.67653 12.7044 1.50262 12.3423C1.38512 12.1072 1.37572 11.905 1.47442 11.6652C1.57313 11.43 11.4009 1.58758 11.6735 1.4512C11.9132 1.33364 12.1341 1.33364 12.3738 1.4512Z" fill="black"/>
</svg>
