<svg width="21" height="28" viewBox="0 0 21 28" fill="none" xmlns="http://www.w3.org/2000/svg">
<path d="M9.65099 0.0794083C9.22136 0.187988 8.854 0.382289 8.51778 0.673739C7.42192 1.61095 7.37834 3.13679 8.41193 4.14258C8.58004 4.3083 8.81664 4.48546 8.93495 4.54832L9.15287 4.6569V5.43982V6.22274L6.27626 6.23988C3.48058 6.25702 3.38719 6.26274 3.107 6.37703C2.49058 6.63991 2.11076 7.1028 1.98001 7.77143L1.90529 8.11431H1.0585C0.311322 8.11431 0.19302 8.12574 0.10585 8.21717C0.0124529 8.31432 0 8.60006 0 11.1888V14.0519L0.161888 14.1662C0.311322 14.2748 0.410945 14.2862 1.12699 14.2862H1.92397L1.96133 14.5548C2.05473 15.1491 2.44699 15.6577 3.0136 15.932L3.33115 16.0863L5.12436 16.1035L6.91135 16.1206V16.715V17.3093L4.22153 17.3264L1.52548 17.3436L1.13321 17.5093C0.716041 17.6865 0.404719 17.9608 0.17434 18.3551L0.0311322 18.6008L0.0124529 22.7269C0 26.8072 0 26.8586 0.124529 26.9729C0.249058 27.0872 0.292643 27.0872 10.3359 27.0872C20.3792 27.0872 20.4227 27.0872 20.5473 26.9729C20.6718 26.8586 20.6718 26.8072 20.6593 22.7269L20.6407 18.6008L20.4975 18.3551C20.1675 17.7893 19.688 17.4693 19.0093 17.3722C18.8101 17.3379 17.5461 17.315 16.2074 17.315H13.7604V16.7207V16.1206L15.5537 16.1035L17.3406 16.0863L17.6582 15.932C18.231 15.652 18.5859 15.1777 18.7167 14.4977L18.754 14.2862H19.551C20.2608 14.2862 20.3605 14.2748 20.5099 14.1662L20.6718 14.0519V11.1774C20.6718 8.46291 20.6656 8.29718 20.5597 8.21146C20.4663 8.13145 20.2982 8.11431 19.6008 8.11431H18.7665L18.6918 7.77143C18.561 7.12566 18.2123 6.67991 17.6333 6.41704L17.2784 6.25702L14.4018 6.23988L11.5189 6.22274V5.43982V4.6569L11.7368 4.54832C11.8551 4.48546 12.098 4.30259 12.2723 4.13115C13.2436 3.18822 13.2436 1.72525 12.2723 0.782319C11.5936 0.125126 10.56 -0.149181 9.65099 0.0794083ZM10.9025 0.890899C11.3633 1.01662 11.905 1.5138 12.0419 1.94812C12.2536 2.5996 12.1104 3.11964 11.5874 3.60539C11.0582 4.09114 10.4916 4.21687 9.77552 4.02257C9.30853 3.89684 8.76683 3.39966 8.62985 2.97106C8.45551 2.42816 8.524 1.98813 8.854 1.54238C9.10306 1.20521 9.35212 1.02805 9.73816 0.902328C10.1367 0.776604 10.4667 0.776604 10.9025 0.890899ZM10.6472 5.57126V6.22845H10.3359H10.0246V5.57126V4.91406H10.3359H10.6472V5.57126ZM17.2037 7.10852C17.4652 7.20567 17.7205 7.48569 17.8076 7.76C17.8948 8.04573 17.8948 14.2976 17.8076 14.5834C17.7205 14.8577 17.4652 15.1377 17.2037 15.2349C17.0356 15.3034 15.8276 15.3149 10.3421 15.3149C5.77814 15.3149 3.62379 15.2977 3.50549 15.252C3.25643 15.1663 3.05096 14.9777 2.9202 14.7148C2.81435 14.5034 2.8019 14.2748 2.8019 11.2288C2.8019 9.1601 2.82681 7.89143 2.86416 7.76C2.94511 7.4914 3.20662 7.20567 3.45568 7.10852C3.73587 6.99422 16.911 6.99422 17.2037 7.10852ZM1.9302 11.2003V13.4861H1.40095H0.871702V11.2003V8.91437H1.40095H1.9302V11.2003ZM19.8001 11.2003V13.4861H19.2708H18.7416V11.2003V8.91437H19.2708H19.8001V11.2003ZM12.8887 16.715V17.315H10.3359H7.78306V16.715V16.1149H10.3359H12.8887V16.715ZM18.9533 18.1722C19.2335 18.2294 19.4576 18.3665 19.6382 18.5951C19.769 18.7494 19.769 18.818 19.7876 22.5211L19.8001 26.2871H18.0878H16.3755V24.3727V22.4525L16.2199 22.3154L16.0705 22.1725H10.3359H4.60134L4.45191 22.3154L4.29625 22.4525V24.3727V26.2871H2.58397H0.871702L0.884155 22.5211C0.902834 18.818 0.902834 18.7494 1.03359 18.5951C1.20793 18.3722 1.44454 18.2237 1.68737 18.1722C1.98624 18.1094 18.6544 18.1036 18.9533 18.1722ZM15.5038 24.6299V26.2871H10.3359H5.16795V24.6299V22.9726H10.3359H15.5038V24.6299Z" fill="black"/>
<path d="M5.58512 8.59431C4.49549 8.96576 4.0036 10.0973 4.51417 11.0574C5.19285 12.3432 7.26003 12.326 7.95117 11.0402C8.18777 10.5945 8.20023 9.93727 7.97607 9.52009C7.78928 9.17721 7.4406 8.84576 7.08569 8.68003C6.74947 8.52002 5.94003 8.4743 5.58512 8.59431ZM6.86777 9.50295C7.6523 10.0516 7.21022 11.2288 6.22022 11.2174C5.47304 11.2059 4.98738 10.5602 5.25512 9.92012C5.43569 9.4858 5.77191 9.29722 6.30116 9.33151C6.56267 9.34294 6.70588 9.38865 6.86777 9.50295Z" fill="black"/>
<path d="M13.804 8.59431C12.7144 8.96576 12.2225 10.0973 12.7331 11.0574C13.4118 12.3432 15.4789 12.326 16.1701 11.0402C16.4067 10.5945 16.4191 9.93727 16.195 9.52009C16.0082 9.17721 15.6595 8.84576 15.3046 8.68003C14.9684 8.52002 14.1589 8.4743 13.804 8.59431ZM15.0618 9.4858C15.3046 9.6401 15.5038 10.0001 15.5038 10.2859C15.5038 10.5202 15.2921 10.8859 15.0618 11.0402C14.6384 11.3259 14.0655 11.2745 13.6857 10.9088C13.2125 10.4516 13.337 9.72011 13.9472 9.41723C14.2461 9.26864 14.7816 9.29722 15.0618 9.4858Z" fill="black"/>
<path d="M7.45309 13.4747C7.30365 13.6233 7.32233 13.9033 7.47799 14.0348C7.60252 14.1376 7.7395 14.1433 10.3359 14.1433C12.9324 14.1433 13.0693 14.1376 13.1939 14.0348C13.3558 13.8976 13.3682 13.5947 13.2125 13.469C13.1067 13.3833 12.8141 13.3719 10.3235 13.3719C7.72083 13.3719 7.54648 13.3776 7.45309 13.4747Z" fill="black"/>
<path d="M2.40343 18.7551C1.43833 18.9437 1.17682 20.1095 1.96758 20.6695C2.14815 20.7896 2.2789 20.8296 2.584 20.8467C3.08834 20.8753 3.42457 20.721 3.66117 20.3495C4.1842 19.5323 3.41212 18.5608 2.40343 18.7551ZM2.93268 19.6638C3.03853 19.8523 2.914 20.0581 2.68985 20.0581C2.48438 20.0581 2.36607 19.9666 2.36607 19.8009C2.36607 19.6352 2.48438 19.5437 2.68985 19.5437C2.80193 19.5437 2.88287 19.5838 2.93268 19.6638Z" fill="black"/>
<path d="M17.3903 18.8866C17.0977 19.0466 16.8113 19.5037 16.8113 19.8009C16.8113 20.1095 17.1039 20.5552 17.409 20.721C17.6456 20.8524 17.7453 20.8696 18.0815 20.8467C18.3928 20.8296 18.5236 20.7896 18.7041 20.6695C19.333 20.2295 19.333 19.3723 18.7041 18.9323C18.5173 18.8065 18.399 18.7723 18.0628 18.7551C17.7079 18.7437 17.6145 18.7608 17.3903 18.8866ZM18.2309 19.6123C18.2745 19.6523 18.3056 19.7323 18.3056 19.8009C18.3056 19.9666 18.1873 20.0581 17.9819 20.0581C17.7577 20.0581 17.6332 19.8523 17.739 19.6638C17.82 19.5323 18.1064 19.498 18.2309 19.6123Z" fill="black"/>
</svg>
